<?xml version="1.0" encoding="iso-8859-1"?>
<!-- Generator: Adobe Illustrator 19.0.0, SVG Export Plug-In . SVG Version: 6.00 Build 0)  -->
<svg version="1.1" id="Layer_1" xmlns="http://www.w3.org/2000/svg" xmlns:xlink="http://www.w3.org/1999/xlink" x="0px" y="0px"
	 viewBox="0 0 512.001 512.001" style="enable-background:new 0 0 512.001 512.001;" xml:space="preserve">
<circle style="fill:#FAD52A;" cx="256.001" cy="256.002" r="234.019"/>
<path style="fill:#FFEA5E;" d="M256,490.019c-129.245,0-234.019-104.774-234.019-234.019S126.755,21.982,256,21.982
	C256,21.982,256,481.764,256,490.019z"/>
<path style="fill:#FF9900;" d="M38.788,256.001C38.788,136.229,136.23,38.789,256,38.789c42.333,0,83.3,12.178,118.564,35.2
	l-2.496,1.059c-9.861,4.184-14.462,15.569-10.278,25.429c3.134,7.389,10.311,11.824,17.862,11.824c2.526,0,5.095-0.497,7.567-1.546
	l39.475-16.75c8.418-3.573,13.198-12.54,11.469-21.521l-7.49-38.897c-2.026-10.518-12.193-17.404-22.711-15.377
	c-9.978,1.922-16.672,11.173-15.605,21.098C351.553,13.578,304.528,0.001,256,0.001c-141.159,0-256,114.841-256,256
	c0,47.132,12.921,93.206,37.366,133.241c3.655,5.987,10.036,9.289,16.571,9.289c3.445,0,6.934-0.918,10.088-2.844
	c9.142-5.582,12.027-17.518,6.445-26.659C49.744,335.082,38.788,295.999,38.788,256.001z"/>
<path style="fill:#FAD52A;" d="M38.788,256.001C38.788,136.229,136.23,38.789,256,38.789V0.001c-141.159,0-256,114.841-256,256
	c0,47.132,12.921,93.206,37.366,133.241c3.655,5.987,10.036,9.289,16.571,9.289c3.445,0,6.934-0.918,10.088-2.844
	c9.142-5.582,12.027-17.518,6.445-26.659C49.744,335.082,38.788,295.999,38.788,256.001z"/>
<path style="fill:#FF9900;" d="M470.392,116.052c-5.862-8.964-17.881-11.48-26.846-5.616c-8.964,5.862-11.478,17.881-5.616,26.846
	c23.081,35.293,35.282,76.345,35.282,118.719c0,119.772-97.44,217.212-217.212,217.212c-41.664,0-81.988-11.811-116.871-34.128
	c10.193-1.9,17.152-11.518,15.631-21.865c-1.559-10.596-11.408-17.92-22.011-16.365l-42.75,6.29
	c-5.221,0.769-9.904,3.632-12.968,7.929c-3.064,4.297-4.244,9.657-3.269,14.844l9.097,48.365
	c1.752,9.315,9.893,15.812,19.037,15.812c1.189-0.001,2.396-0.11,3.607-0.338c9.657-1.817,16.265-10.504,15.765-20.054
	c40.428,25.072,86.843,38.297,134.732,38.297c141.159,0,256-114.841,256-256C512,206.065,497.612,157.672,470.392,116.052z"/>
<path style="fill:#FAD52A;" d="M256,473.212c-41.664,0-81.988-11.811-116.871-34.128c10.193-1.9,17.152-11.518,15.631-21.865
	c-1.559-10.596-11.408-17.92-22.011-16.365l-42.75,6.29c-5.221,0.769-9.904,3.632-12.968,7.929
	c-3.064,4.297-4.244,9.657-3.269,14.844l9.097,48.365c1.752,9.315,9.893,15.812,19.037,15.812c1.189-0.001,2.396-0.11,3.607-0.338
	c9.657-1.817,16.265-10.504,15.765-20.054c40.428,25.072,86.843,38.297,134.732,38.297v-38.788H256z"/>
<path style="fill:#AEADB3;" d="M228.786,282.069c8.567,0,15.513-6.945,15.513-15.513v-70.408c0-8.567-6.945-15.513-15.513-15.513
	h-50.625c-8.567,0-15.513,6.945-15.513,15.513v22.803c0,8.567,6.945,15.513,15.513,15.513c8.568,0,15.513-6.945,15.513-15.513
	v-7.292h19.6v39.383h-35.113c-8.567,0-15.513,6.945-15.513,15.513v49.297c0,8.567,6.945,15.513,15.513,15.513h50.625
	c8.567,0,15.513-6.945,15.513-15.513s-6.945-15.513-15.513-15.513h-35.113v-18.273h35.113V282.069z"/>
<path style="fill:#555559;" d="M333.839,331.366c8.567,0,15.513-6.945,15.513-15.513V196.148c0-8.567-6.945-15.513-15.513-15.513
	c-8.567,0-15.513,6.945-15.513,15.513v54.896h-19.6v-54.896c0-8.567-6.945-15.513-15.513-15.513S267.7,187.58,267.7,196.148v70.408
	c0,8.567,6.945,15.513,15.513,15.513h35.113v33.784C318.327,324.42,325.272,331.366,333.839,331.366z"/>
<g>
</g>
<g>
</g>
<g>
</g>
<g>
</g>
<g>
</g>
<g>
</g>
<g>
</g>
<g>
</g>
<g>
</g>
<g>
</g>
<g>
</g>
<g>
</g>
<g>
</g>
<g>
</g>
<g>
</g>
</svg>
